<svg xmlns="http://www.w3.org/2000/svg" width="1000" height="750" viewBox="0 0 1000 750">
<g>
<path d="M 656.73,558.57 L 660.50,559.97 L 662.16,560.76 L 664.84,562.45 L 666.08,563.32 L 668.05,565.29 L 668.96,566.33 L 670.38,568.76 L 672.05,573.13 L 672.29,573.97 L 672.57,575.65 L 672.67,576.49 L 672.69,578.16 L 672.65,579.82 L 671.85,583.04 L 671.34,584.61 L 669.74,587.54 L 668.85,588.96 L 666.59,591.46 L 665.39,592.64 L 662.62,594.56 L 661.18,595.44 L 658.05,596.64 L 656.45,597.13 L 653.10,597.46 L 652.26,597.48 L 650.56,597.34 L 649.70,597.23 L 648.00,596.82 L 646.88,596.51 L 644.83,595.65 L 643.84,595.20 L 642.04,594.09 L 641.17,593.50 L 639.63,592.17 L 638.89,591.48 L 637.60,589.97 L 636.99,589.19 L 635.97,587.52 L 635.49,586.67 L 634.73,584.89 L 634.38,583.99 L 633.88,582.13 L 633.67,581.19 L 633.45,579.29 L 633.37,578.33 L 633.41,576.42 L 633.47,575.46 L 633.79,573.58 L 633.99,572.64 L 634.59,570.82 L 634.93,569.92 L 635.81,568.19 L 636.28,567.35 L 637.45,565.76 L 638.07,564.98 L 639.52,563.56 L 640.29,562.88 L 642.03,561.66 L 644.97,560.11 L 646.48,559.46 L 649.22,558.64 L 650.55,558.31 L 653.05,558.13 L 654.29,558.11 Z" fill="rgba(74,78,89,1)"/>
<path d="M 659.52,397.05 L 661.11,397.88 L 663.95,400.01 L 665.30,401.15 L 667.59,403.83 L 668.66,405.23 L 670.31,408.34 L 671.97,413.37 L 672.07,413.83 L 672.24,415.34 L 672.32,416.19 L 672.45,418.49 L 672.52,419.75 L 672.62,422.87 L 672.67,424.53 L 672.75,428.47 L 672.78,430.55 L 672.83,435.33 L 672.85,437.83 L 672.86,443.46 L 672.87,446.39 L 672.85,452.89 L 672.80,463.64 L 672.50,508.50 L 669.89,514.00 L 669.20,515.45 L 667.66,518.07 L 666.87,519.34 L 665.11,521.59 L 664.21,522.67 L 662.22,524.57 L 661.19,525.47 L 658.95,527.02 L 657.80,527.75 L 655.29,528.96 L 654.01,529.52 L 651.22,530.39 L 649.80,530.79 L 646.72,531.35 L 641.76,531.83 L 633.00,532.24 L 633.00,478.91 L 633.00,473.72 L 633.00,471.20 L 632.99,466.59 L 632.99,464.36 L 632.98,460.30 L 632.97,458.33 L 632.95,454.77 L 632.94,453.06 L 632.92,449.98 L 632.90,448.50 L 632.87,445.86 L 632.85,444.59 L 632.81,442.36 L 632.79,441.30 L 632.74,439.44 L 632.71,438.56 L 632.65,437.05 L 632.62,436.33 L 632.54,435.12 L 632.46,433.98 L 632.26,432.48 L 632.15,431.83 L 631.89,431.11 L 631.42,430.61 L 631.13,430.50 L 630.00,430.33 L 629.35,430.25 L 627.66,430.14 L 625.87,430.04 L 621.53,430.03 L 620.45,430.05 L 618.36,430.11 L 617.35,430.15 L 615.55,430.27 L 614.71,430.33 L 613.42,430.50 L 612.27,430.81 L 612.21,430.85 L 612.10,431.18 L 612.05,431.40 L 611.95,432.11 L 611.89,432.51 L 611.80,433.63 L 611.75,434.25 L 611.67,435.80 L 611.63,436.64 L 611.55,438.67 L 611.51,439.74 L 611.44,442.27 L 611.40,443.60 L 611.34,446.67 L 611.31,448.27 L 611.25,451.90 L 611.22,453.79 L 611.17,458.02 L 611.14,460.21 L 611.09,465.06 L 611.07,467.57 L 611.02,473.09 L 611.00,475.93 L 610.96,482.14 L 610.95,485.33 L 610.91,492.26 L 610.89,495.82 L 610.86,503.50 L 610.84,507.44 L 610.82,515.92 L 610.77,529.54 L 610.50,627.50 L 607.90,633.05 L 607.18,634.58 L 605.55,637.37 L 604.71,638.72 L 602.83,641.16 L 601.85,642.33 L 599.71,644.40 L 598.61,645.40 L 596.20,647.12 L 594.96,647.94 L 592.29,649.31 L 590.92,649.95 L 587.97,650.97 L 586.46,651.43 L 583.24,652.11 L 578.08,652.73 L 569.97,653.29 L 570.50,413.50 L 572.86,409.00 L 573.62,407.54 L 575.27,404.99 L 576.12,403.77 L 577.96,401.65 L 578.92,400.64 L 581.01,398.90 L 584.50,396.66 L 585.47,396.14 L 587.43,395.44 L 588.01,395.29 L 589.50,395.06 L 590.32,394.95 L 592.49,394.80 L 593.68,394.73 L 596.80,394.63 L 597.65,394.61 L 599.57,394.58 L 600.57,394.57 L 602.81,394.54 L 603.98,394.53 L 606.58,394.52 L 607.93,394.51 L 610.93,394.51 L 612.47,394.50 L 615.89,394.50 L 621.53,394.50 L 654.55,394.50 M 430.00,460.24 L 430.00,467.95 L 430.00,471.74 L 430.00,478.94 L 430.00,482.47 L 430.00,489.18 L 430.00,492.48 L 430.00,498.72 L 430.00,501.78 L 429.99,507.56 L 429.99,510.40 L 429.98,515.75 L 429.98,518.38 L 429.97,523.31 L 429.96,525.73 L 429.94,530.27 L 429.93,532.49 L 429.91,536.65 L 429.90,538.69 L 429.87,542.48 L 429.85,544.34 L 429.81,547.80 L 429.79,549.49 L 429.75,552.62 L 429.72,554.15 L 429.67,556.98 L 429.64,558.35 L 429.57,560.90 L 429.50,563.37 L 429.33,567.53 L 429.23,569.50 L 429.01,572.75 L 428.88,574.28 L 428.60,576.78 L 428.44,577.94 L 428.09,579.82 L 427.90,580.70 L 427.47,582.12 L 427.25,582.78 L 426.74,583.87 L 426.47,584.40 L 425.88,585.32 L 423.72,588.15 L 423.27,588.74 L 422.07,590.00 L 421.43,590.64 L 419.97,591.90 L 419.23,592.51 L 417.70,593.62 L 415.52,594.95 L 410.56,597.50 L 380.53,597.69 L 376.40,597.71 L 368.57,597.69 L 366.68,597.68 L 363.12,597.63 L 361.39,597.61 L 358.21,597.55 L 356.68,597.51 L 353.98,597.43 L 352.69,597.39 L 350.56,597.29 L 349.57,597.24 L 348.09,597.13 L 347.44,597.07 L 346.72,596.95 L 344.78,596.47 L 341.33,595.06 L 339.67,594.28 L 336.74,592.24 L 335.33,591.13 L 332.87,588.40 L 329.65,583.51 L 329.39,583.02 L 328.95,582.08 L 328.75,581.59 L 328.42,580.35 L 328.27,579.66 L 328.04,577.74 L 327.99,577.20 L 327.90,575.93 L 327.85,575.25 L 327.78,573.67 L 327.75,572.83 L 327.69,570.90 L 327.66,569.88 L 327.62,567.54 L 327.60,566.32 L 327.57,563.53 L 327.56,562.07 L 327.54,558.78 L 327.53,557.07 L 327.52,553.23 L 327.51,551.23 L 327.51,546.79 L 327.50,544.49 L 327.50,539.41 L 327.50,531.00 L 327.50,482.50 L 330.91,476.20 L 331.65,474.85 L 333.24,472.42 L 334.06,471.24 L 335.85,469.15 L 336.77,468.15 L 338.76,466.40 L 339.78,465.56 L 341.99,464.14 L 343.12,463.46 L 345.56,462.36 L 346.81,461.84 L 349.50,461.05 L 350.87,460.69 L 353.81,460.20 L 358.54,459.80 L 366.50,459.50 L 366.75,509.50 L 366.77,512.35 L 366.80,517.58 L 366.81,520.11 L 366.84,524.74 L 366.85,526.99 L 366.88,531.06 L 366.90,533.03 L 366.94,536.58 L 366.95,538.29 L 366.99,541.36 L 367.02,542.83 L 367.06,545.45 L 367.09,546.71 L 367.14,548.91 L 367.17,549.96 L 367.23,551.79 L 367.26,552.67 L 367.34,554.16 L 367.38,554.86 L 367.46,556.05 L 367.55,557.18 L 367.77,558.67 L 367.89,559.32 L 368.18,560.09 L 368.69,560.75 L 368.97,560.96 L 370.05,561.30 L 370.65,561.45 L 372.23,561.69 L 373.07,561.79 L 374.98,561.92 L 375.96,561.97 L 378.00,561.99 L 379.03,561.99 L 381.03,561.92 L 382.01,561.86 L 383.78,561.68 L 384.62,561.58 L 385.97,561.29 L 387.34,560.74 L 387.54,560.60 L 387.87,559.91 L 387.95,559.68 L 388.09,559.04 L 388.16,558.68 L 388.28,557.71 L 388.34,557.17 L 388.45,555.81 L 388.50,555.07 L 388.59,553.23 L 388.63,552.24 L 388.70,549.86 L 388.74,548.59 L 388.79,545.59 L 388.82,544.00 L 388.87,540.30 L 388.89,538.35 L 388.93,533.88 L 388.94,531.54 L 388.97,526.23 L 388.98,523.46 L 389.00,517.22 L 389.00,513.98 L 389.01,506.75 L 389.02,504.88 L 389.02,500.93 L 389.02,498.93 L 389.02,494.71 L 389.02,492.56 L 389.02,488.06 L 389.02,485.77 L 389.02,480.98 L 389.02,478.54 L 389.02,473.45 L 389.02,465.45 L 389.01,461.72 L 389.01,454.55 L 389.02,451.01 L 389.02,444.20 L 389.03,440.85 L 389.04,434.43 L 389.05,431.27 L 389.07,425.25 L 389.08,422.29 L 389.10,416.67 L 389.11,413.91 L 389.14,408.70 L 389.16,406.15 L 389.19,401.37 L 389.21,399.03 L 389.25,394.67 L 389.27,392.55 L 389.32,388.64 L 389.34,386.74 L 389.39,383.28 L 389.42,381.61 L 389.47,378.61 L 389.50,377.17 L 389.56,374.64 L 389.59,373.44 L 389.66,371.39 L 389.69,370.43 L 389.76,368.87 L 389.80,368.15 L 389.87,367.09 L 389.99,366.07 L 390.34,364.21 L 391.39,360.75 L 391.98,359.06 L 393.49,355.94 L 394.31,354.42 L 396.29,351.64 L 399.78,347.84 L 401.36,346.40 L 404.49,344.13 L 406.08,343.08 L 409.46,341.55 L 411.20,340.86 L 415.07,339.96 L 421.75,339.20 L 430.00,338.75 M 502.24,394.00 L 506.95,394.02 L 509.26,394.03 L 513.54,394.08 L 515.63,394.10 L 519.44,394.17 L 521.29,394.20 L 524.59,394.29 L 526.18,394.34 L 528.93,394.45 L 530.23,394.51 L 532.39,394.63 L 533.39,394.70 L 534.91,394.85 L 536.44,395.09 L 537.79,395.43 L 540.48,396.67 L 541.81,397.36 L 544.31,399.21 L 545.52,400.19 L 547.66,402.51 L 550.28,406.35 L 552.50,410.50 L 552.50,579.50 L 550.35,583.51 L 549.62,584.88 L 547.94,587.32 L 547.07,588.49 L 545.09,590.55 L 544.07,591.53 L 541.78,593.22 L 538.00,595.35 L 536.95,595.83 L 534.77,596.50 L 534.14,596.64 L 532.60,596.88 L 531.76,596.98 L 529.62,597.15 L 528.46,597.23 L 525.51,597.34 L 524.71,597.37 L 522.92,597.41 L 521.99,597.44 L 519.92,597.47 L 518.85,597.49 L 516.47,597.52 L 515.24,597.54 L 512.53,597.57 L 511.13,597.58 L 508.05,597.61 L 503.00,597.64 L 498.81,597.67 L 490.81,597.66 L 488.88,597.65 L 485.23,597.61 L 483.45,597.59 L 480.18,597.53 L 478.60,597.50 L 475.80,597.42 L 474.47,597.38 L 472.24,597.29 L 471.21,597.24 L 469.64,597.14 L 468.95,597.08 L 468.15,596.96 L 466.96,596.72 L 464.28,595.78 L 462.93,595.25 L 460.20,593.90 L 458.88,593.19 L 456.51,591.64 L 453.79,589.32 L 453.55,589.06 L 452.94,588.19 L 452.62,587.71 L 451.91,586.52 L 449.79,582.46 L 447.50,577.50 L 447.50,492.45 L 447.50,487.59 L 447.50,485.19 L 447.50,480.63 L 447.50,478.39 L 447.50,474.12 L 447.50,472.02 L 447.51,468.03 L 447.51,466.07 L 447.51,462.35 L 447.51,460.53 L 447.52,457.07 L 447.52,453.67 L 447.54,447.63 L 447.54,444.72 L 447.57,439.58 L 447.58,437.12 L 447.62,432.81 L 447.64,430.75 L 447.68,427.18 L 447.71,425.48 L 447.77,422.58 L 447.80,421.21 L 447.88,418.89 L 447.92,417.80 L 448.02,415.98 L 448.07,415.12 L 448.19,413.72 L 448.25,413.06 L 448.39,412.00 L 448.54,411.00 L 448.91,409.66 L 449.59,407.99 L 450.30,406.46 L 452.03,403.74 L 452.95,402.45 L 455.06,400.22 L 456.17,399.18 L 458.63,397.49 L 462.65,395.60 L 463.14,395.44 L 464.26,395.15 L 464.86,395.01 L 466.30,394.79 L 467.07,394.68 L 468.97,394.51 L 470.00,394.43 L 472.51,394.30 L 473.86,394.24 L 477.14,394.15 L 478.89,394.11 L 483.07,394.06 L 484.18,394.05 L 486.59,394.03 L 487.84,394.03 L 490.53,394.01 L 491.91,394.01 L 494.90,394.00 L 499.74,394.00 M 496.45,429.00 L 495.25,429.05 L 493.12,429.23 L 492.12,429.33 L 490.58,429.63 L 489.20,430.20 L 489.09,430.31 L 488.89,431.27 L 488.84,431.58 L 488.75,432.40 L 488.71,432.84 L 488.63,433.94 L 488.59,434.54 L 488.52,435.95 L 488.48,436.69 L 488.42,438.42 L 488.39,439.33 L 488.33,441.41 L 488.31,442.49 L 488.26,444.92 L 488.24,446.18 L 488.19,448.98 L 488.17,450.43 L 488.14,453.62 L 488.12,455.27 L 488.10,458.88 L 488.08,460.73 L 488.06,464.76 L 488.05,466.83 L 488.03,471.30 L 488.03,473.59 L 488.01,478.52 L 488.01,481.04 L 488.00,486.45 L 488.00,495.12 L 488.00,499.50 L 488.01,507.95 L 488.02,512.11 L 488.05,519.99 L 488.06,523.84 L 488.11,530.96 L 488.13,534.41 L 488.18,540.59 L 488.20,542.07 L 488.23,544.83 L 488.24,546.17 L 488.27,548.63 L 488.29,549.82 L 488.32,551.96 L 488.34,552.99 L 488.38,554.80 L 488.40,555.65 L 488.44,557.09 L 488.45,557.77 L 488.49,558.83 L 488.51,559.30 L 488.56,559.95 L 488.62,560.45 L 488.75,560.79 L 489.34,561.27 L 489.73,561.48 L 491.13,561.72 L 491.56,561.77 L 492.62,561.83 L 493.20,561.85 L 494.60,561.87 L 495.36,561.87 L 497.16,561.85 L 500.37,561.78 L 511.50,561.50 L 511.76,496.61 L 511.77,493.67 L 511.79,488.12 L 511.80,485.40 L 511.81,480.28 L 511.81,477.78 L 511.82,473.09 L 511.82,470.80 L 511.82,466.53 L 511.81,464.44 L 511.80,460.57 L 511.80,458.69 L 511.78,455.21 L 511.77,453.52 L 511.74,450.42 L 511.73,448.92 L 511.70,446.19 L 511.68,444.88 L 511.64,442.51 L 511.62,441.36 L 511.57,439.34 L 511.55,438.37 L 511.49,436.68 L 511.46,435.87 L 511.39,434.51 L 511.36,433.86 L 511.29,432.81 L 511.25,432.32 L 511.17,431.56 L 511.12,431.22 L 511.03,430.75 L 510.88,430.36 L 510.70,430.14 L 509.60,429.77 L 508.95,429.60 L 507.12,429.33 L 506.14,429.21 L 503.84,429.06 L 502.65,428.99 L 500.15,428.95 L 498.89,428.94 Z" fill="rgba(230,230,230,1)"/>
<path d="M 340.64,432.54 L 339.40,432.10 L 337.05,430.79 L 335.91,430.07 L 333.80,428.27 L 332.79,427.32 L 331.03,425.12 L 328.90,421.50 L 328.34,420.30 L 327.65,417.84 L 327.37,416.60 L 327.21,414.11 L 327.20,412.87 L 327.55,410.42 L 327.79,409.21 L 328.62,406.86 L 329.09,405.71 L 330.38,403.53 L 331.07,402.47 L 332.79,400.53 L 333.69,399.60 L 335.81,397.96 L 339.39,395.91 L 340.78,395.28 L 343.40,394.53 L 344.70,394.23 L 347.28,394.15 L 348.58,394.19 L 351.29,394.77 L 355.66,396.42 L 357.23,397.15 L 359.89,399.09 L 361.14,400.12 L 363.13,402.55 L 364.04,403.82 L 365.34,406.60 L 365.91,408.03 L 366.50,411.03 L 366.71,412.55 L 366.58,415.64 L 366.42,417.17 L 365.54,420.20 L 365.00,421.69 L 363.36,424.51 L 360.01,428.37 L 358.54,429.70 L 355.50,431.62 L 353.96,432.46 L 350.78,433.40 L 349.17,433.75 L 345.83,433.70 L 344.14,433.56 Z" fill="rgba(242,229,31,1)"/>
</g>
</svg>